/* XPM */
static char *b6b66c0d5f5e4c62f972eb085ba75fd8JeRDZEHMW9lkTtU3[] = {
/* columns rows colors chars-per-pixel */
"64 64 101 2 ",
"   c black",
".  c #020506",
"X  c #030607",
"o  c #03080A",
"O  c #040A0C",
"+  c #071014",
"@  c #081216",
"#  c #091419",
"$  c #0A161C",
"%  c #0A171C",
"&  c #0B181F",
"*  c #0B191F",
"=  c #0B1A21",
"-  c #0D1F27",
";  c #0E2028",
":  c #0F222B",
">  c #122933",
",  c #132C37",
"<  c #142D39",
"1  c #142F3A",
"2  c #14303B",
"3  c #15313D",
"4  c #16333F",
"5  c #173643",
"6  c #183846",
"7  c #193A48",
"8  c #1B3D4D",
"9  c #1B3F4E",
"0  c #1C4051",
"q  c #1C4152",
"w  c #1D4353",
"e  c #204A5C",
"r  c #214D61",
"t  c #245469",
"y  c #25576D",
"u  c #26586E",
"i  c #275B72",
"p  c #285C73",
"a  c #296078",
"s  c #2A6179",
"d  c #2C657F",
"f  c #2C667F",
"g  c #2D6983",
"h  c #2E6C87",
"j  c #2F6E89",
"k  c #306F8B",
"l  c #30708C",
"z  c #327390",
"x  c #337693",
"c  c #337795",
"v  c #347997",
"b  c #357A98",
"n  c #367C9B",
"m  c #367E9D",
"M  c #3A4CA8",
"N  c #3A50AA",
"B  c #3B50AB",
"V  c #3B52AC",
"C  c #3C52AC",
"Z  c #3781A1",
"A  c #3881A1",
"S  c #3984A5",
"D  c #3A85A7",
"F  c #3A87A9",
"G  c #3B88AA",
"H  c #3F92B7",
"J  c #4093B8",
"K  c #4095BA",
"L  c #4196BB",
"P  c #4197BC",
"I  c #4298BE",
"U  c #429AC1",
"Y  c #439CC3",
"T  c #459FC7",
"R  c #46A1CA",
"E  c #46A3CB",
"W  c #47A5CE",
"Q  c #48A8D2",
"!  c #49A9D3",
"~  c #4AAAD5",
"^  c #4AACD7",
"/  c #4BAED9",
"(  c #4CB0DC",
")  c #4DB3E0",
"_  c #4EB6E3",
"`  c #4FB6E4",
"'  c #4FB8E5",
"]  c #50B9E7",
"[  c #50BAE9",
"{  c #52BEED",
"}  c #53BFEF",
"|  c #53C0F0",
" . c #54C3F3",
".. c #54C3F4",
"X. c #55C5F6",
"o. c #57C9FB",
"O. c #57CAFC",
"+. c #57CAFD",
"@. c #58CAFE",
"#. c #58CCFE",
"$. c #58CCFF",
/* pixels */
"M M M M M M M M M M M M M M M M M M M M M M M M M M M M M M M M M M M M M M M M M M M M M M M M M M M M M M M M M M M M M M M O.",
"M N N N N N N N N N N N N N N N N N N N N N N N N N N N N N N N N N N N N N N N B B N N N N N N N N N N N N N N N N N N N N M @.",
"M N $.$.$.$.$.$.$.$.$.$.$.$.$.$.$.$.$.$.$.$.$.$.$.$.$.$.$.$.$.$.$.$.$.$.$.$.$.$.$.$.$.$.$.$.$.$.$.$.$.$.$.$.$.$.$.$.$.$.$.B M @.",
"M N $.$.$.$.$.$.$.$.$.$.$.$.$.$.$.$.$.$.$.$.$.$.$.$.$.$.$.$.$.$.$.$.$.$.$.$.$.$.$.$.$.$.$.$.$.$.$.$.$.$.$.$.$.$.$.$.$.$.$.B M @.",
"M B $.$.$.$.$.$.$.$.$.$.$.$.$.$.$.$.$.$.$.$.$.$.$.$.$.$.$.$.$.$.$.$.$.$.$.$.$.$.$.$.$.$.$.$.$.$.$.$.$.$.$.$.$.$.$.$.$.$.$.C M $.",
"M B $.$.$.$.$.$.$.$.$.$.$.$.$.$.$.$.$.$.$.$.$.$.$.$.$.$.$.$.$.$.$.$.$.$.$.$.$.$.$.$.$.$.$.$.$.$.$.$.$.$.$.$.$.$.$.$.$.$.$.B M $.",
"M B $.$.$.$.$.$.$.$.$.$.$.$.$.$.$.$.$.$.$.$.$.$.$.$.$.$.$.$.$.$.$.$.$.$.$.$.$.$.$.$.$.$.$.$.$.$.$.$.$.$.$.$.$.$.$.$.$.$.$.B M @.",
"M B $.$.$.$.$.$.$.$.$.$.$.$.$.$.$.$.$.$.$.$.$.$.$.$.$.$.$.$.$.$.$.$.$.$.$.$.$.$.$.$.$.$.$.$.$.$.$.$.$.$.$.$.$.$.$.$.$.$.$.B M @.",
"M B $.$.$.$.$.$.$.$.$.$.$.$.$.$.$.$.$.$.$.$.$.$.$.$.$.$.$.$.$.$.$.$.$.$.$.$.$.$.$.$.$.$.$.$.$.$.#.#.#.#.#.#.#.#.$.$.$.$.$.C M $.",
"M B $.$.$.$.$.$.$.$.$.$.$.$.$.$.$.$.$.$.$.$.$.$.$.$.$.$.$.$.$.$.$.$.$.$.$.$.$.$.$.$.$.$.$.$.$.$.#.#.#.#.#.#.#.#.$.$.$.$.$.C M $.",
"M B $.$.$.$.$.$.$.$.$.$.$.$.$.$.$.$.$.$.$.$.$.$.$.$.$.$.$.$.$.$.$.$.$.$.$.$.$.$.$.$.$.$.$.$.$.$.#.#.#.#.#.#.#.#.$.$.$.$.$.B M @.",
"M B $.$.$.$.$.$.$.$.$.$.$.$.$.$.$.$.$.$.$.$.$.$.$.$.$.$.$.$.$.$.$.$.$.$.$.$.$.$.$.$.$.$.$.$.$.$.#.#.#.#.#.#.#.#.$.$.$.$.$.B M @.",
"M B $.$.$.$.$.$.$.$.$.$.$.$.$.$.$.$.$.] U K P K K P K P K P K P K K K I K K K I K K P L R } $.$.#.#.#.#.#.#.#.#.#.#.#.#.$.C M $.",
"M B $.$.$.$.$.$.$.$.$.$.$.$.$.$.$.$.{ a                                                 > J $.$.#.#.#.#.#.#.#.#.#.#.#.#.$.C M $.",
"M B $.$.$.$.$.$.$.$.$.$.$.$.$.$.$.$.| s                                                 , J @.$.#.#.#.#.#.#.#.#.#.#.#.#.#.B M @.",
"M B $.$.$.$.$.$.$.$.$.$.$.$.$.$.@.@.} s                                                 , J @.$.#.#.#.#.#.#.#.#.#.#.#.#.#.B M @.",
"M B $.$.$.$.$.$.$.$.$.$.$.$.$.$.$.$.{ a                                                 > J $.$.#.#.#.#.#.#.#.#.#.#.#.#.#.C M #.",
"M B $.$.$.$.$.$.$.$.$.$.$.$.$.$.$.$.{ a         - a G G G G G G G G G G G G G G G G G G K ` $.$.#.#.#.#.#.#.#.#.#.#.#.#.#.C M #.",
"M B $.$.$.$.$.$.$.$.$.$.$.$.$.$.$.$.{ a         1 K $.$.$.$.$.$.$.$.$.$.$.$.$.$.$.$.$.$.$.$.$.$.#.#.#.#.#.#.#.#.#.#.#.#.#.C M @.",
"M B $.$.$.$.$.$.$.$.$.$.$.$.$.$.$.$.{ a         1 K $.$.$.$.$.$.$.$.$.$.$.$.$.$.$.$.$.$.$.$.$.$.#.#.#.#.#.#.#.#.#.#.#.#.#.B M @.",
"M B $.$.$.$.$.$.$.$.$.$.$.$.$.$.$.$.{ a         1 K $.$.$.$.$.$.$.$.$.$.$.$.$.$.$.@.$.$.@.$.$.$.#.#.#.#.#.#.#.#.#.#.#.#.#.C M #.",
"M B $.$.$.$.$.$.$.$.$.$.$.$.$.$.$.$.{ a         O : 3 3 3 3 3 3 3 3 3 3 3 3 3 3 4 4 3 3 0 J $.$.#.#.#.#.#.#.#.#.#.#.#.#.#.C M #.",
"M B $.$.$.$.$.$.$.$.$.$.$.$.$.$.$.$.{ a                                                 & v $.$.#.#.#.#.#.#.#.#.#.#.#.#.#.C M #.",
"M B $.$.$.$.$.$.$.$.$.$.$.$.$.$.$.$.{ a                                                 & v $.$.#.#.#.#.#.#.#.#.#.#.#.#.#.C M #.",
"M B $.$.$.$.$.$.$.$.$.$.$.$.$.$.$.$.{ a                                                 & v $.$.#.#.#.#.#.#.#.#.#.#.#.#.#.C M #.",
"M B $.$.$.$.$.$.$.$.$.$.$.$.$.$.$.$.} h $ $ $ $ $ $ $ $ # O         X @ $ $ $ $ % & $ $ 1 D $.$.#.#.#.#.#.#.#.#.#.#.#.#.#.C M @.",
"M B $.$.$.$.$.$.$.$.$.$.$.$.$.$.$.$.$.$.$.$.$.$.$.$.$.$.] p         1 K $.$.$.$.#.#.$.$.@.$.$.$.#.#.#.#.#.#.#.#.#.#.#.#.#.C M @.",
"M B $.$.$.$.$.$.$.$.$.$.$.$.$.$.$.$.$.$.$.$.$.$.$.$.$.$.[ i         1 K $.$.$.$.#.$.$.$.$.$.$.$.#.#.#.#.#.#.#.#.#.#.#.#.#.B M @.",
"M B $.$.$.$.$.$.$.$.$.$.$.$...J f f f f f f f f f f f f p ,         @ 0 f f f f f f f f f f f g n ~ @.$.#.#.#.#.#.#.#.#.#.C M #.",
"M B $.$.$.$.$.$.$.$.$.$.$.$.[ p                                                                 1 J $.$.#.#.#.#.#.#.#.#.#.C M @.",
"M B $.$.$.$.$.$.$.$.$.$.$.$.[ p                                                                 > J $.$.#.#.#.#.#.#.#.#.#.C M @.",
"M B $.$.$.$.$.$.$.$.$.$.$.$.[ p                                                                 > K $.$.#.#.#.#.#.#.#.#.#.B M @.",
"M N $.$.$.$.$.$.$.$.$.$.$.$.{ a                                                                 , K $.$.$.$.$.$.$.$.$.$.$.B M $.",
"M N $.$.$.$.$.$.$.$.$.$.$.$.@.X.] ` ` ` ` ` ` ` ` ` ` ` ` ` ` _ ` ` ` ` ` ` ` ` ` ` ` ` ` ` ` ` [ X.$.$.$.$.$.$.$.$.$.$.$.N M @.",
"M B $.$.$.$.$.$.$.$.$.$.$.$.$.$.$.$.$.$.$.$.$.$.$.@.{ / T G n k g l v G T [ @.$.$.$.$.$.$.$.$.$.$.$.$.$.$.$.$.$.$.$.$.$.$.B M @.",
"M B $.$.$.$.$.$.$.$.$.$.$.$.$.$.$.$.$.$.$.$.$.( v 5 o                       = y K X.$.$.$.$.$.$.$.$.$.$.$.$.$.$.$.$.$.$.$.B M @.",
"M B $.$.$.$.$.$.$.$.$.$.$.$.$.$.$.$.$.$.+.E 0 .                                   3 H @.$.$.$.$.$.$.$.$.$.$.$.$.$.$.$.$.$.C M $.",
"M B $.$.$.$.$.$.$.$.$.$.$.$.$.$.$.$.$.+.F -                                         ; Z +.$.$.$.$.$.$.$.$.$.$.$.$.$.$.$.$.B M $.",
"M B $.$.$.$.$.$.$.$.$.$.$.$.$.$.$.$.$.K 3                     . X                     ; S $.$.$.$.$.$.$.$.$.$.$.$.$.$.$.$.B M @.",
"M B $.$.$.$.$.$.$.$.$.$.$.$.$.$.$.@. .f           . 3 v E { O.$.@.O.| ! A 0 .           t X.$.$.$.$.$.$.$.$.$.$.$.$.$.$.$.B M @.",
"M B $.$.$.$.$.$.$.$.$.$.$.$.$.$.$.$./ r         @ g | $.$.$.$.$.$.$.$.$.$.X.Z *         8 ! +.$.#.#.#.#.#.#.#.#.$.$.$.$.$.C M $.",
"M B $.$.$.$.$.$.$.$.$.$.$.$.$.$.$.$.! w         1 K $.$.$.$.$.$.$.$.$.$.$.$.W 0         , H $.$.#.#.#.#.#.#.#.#.$.$.$.$.$.C M $.",
"M B $.$.$.$.$.$.$.$.$.$.$.$.$.$.$.$.] u         + f | $.$.@.$.+.$.$.$.$.@.X.n &         5 T $.$.#.#.#.#.#.#.#.#.$.$.$.$.$.B M @.",
"M B $.$.$.$.$.$.$.$.$.$.$.$.$.$.$.$.+.l             > k I _ { o.O.} _ R v 7 X           e ' $.$.#.#.#.#.#.#.#.#.$.$.$.$.$.B M @.",
"M B $.$.$.$.$.$.$.$.$.$.$.$.$.$.$.$.+.R 6                                             ; Z $.$.$.#.#.#.#.#.#.#.#.#.#.#.#.$.C M $.",
"M B $.$.$.$.$.$.$.$.$.$.$.$.$.$.$.$.$.$.Y 5                                         $ z o.$.$.$.#.#.#.#.#.#.#.#.#.#.#.#.$.C M $.",
"M B $.$.$.$.$.$.$.$.$.$.$.$.$.$.$.$.$.$.@.! r O                                 O 8 I +.+.$.$.$.#.#.#.#.#.#.#.#.#.#.#.#.#.B M @.",
"M B $.$.$.$.$.$.$.$.$.$.$.$.$.$.$.$.$.$.$.$.o.~ j 3 .                     O 5 b ( +.#.#.$.$.$.$.#.#.#.#.#.#.#.#.#.#.#.#.#.B M @.",
"M B $.$.$.$.$.$.$.$.$.$.$.$.$.$.$.$.$.$.$.$.$.$.$.$.X.( P G Z x v S K W ] X.$.$.$.$.$.$.$.$.$.$.#.#.#.#.#.#.#.#.#.#.#.#.#.C M #.",
"M B $.$.$.$.$.$.$.$.$.$.$.$.$.$.$.$.$.$.$.$.$.$.$.$.$.$.$.$.#.#.$.$.$.$.$.$.$.$.$.$.$.$.$.$.$.$.#.#.#.#.#.#.#.#.#.#.#.#.#.C M #.",
"M B $.$.$.$.$.$.$.$.$.$.$.$.$.$.$.$.$.$.$.$.$.$.$.$.$.$.$.$.$.$.$.$.$.$.$.$.$.$.$.$.$.$.$.$.$.$.#.#.#.#.#.#.#.#.#.#.#.#.#.C M @.",
"M B $.$.$.$.$.$.$.$.$.$.$.$.$.$.$.$.$.$.$.$.$.$.$.$.$.$.$.$.$.$.$.$.$.$.$.$.$.$.$.$.$.$.$.$.$.$.#.#.#.#.#.#.#.#.#.#.#.#.#.B M @.",
"M B $.$.$.$.$.$.$.$.$.$.$.$.$.$.$.$.$.$.$.$.$.$.$.$.$.$.$.$.$.$.$.$.$.$.$.$.$.$.$.$.$.$.$.$.$.$.#.#.#.#.#.#.#.#.#.#.#.#.#.C M #.",
"M B $.$.$.$.$.$.$.$.$.$.$.$.$.$.$.$.$.$.$.$.$.$.$.$.$.$.$.$.$.$.$.$.$.$.$.$.$.$.$.$.$.$.$.$.$.$.#.#.#.#.#.#.#.#.#.#.#.#.#.C M #.",
"M B $.$.$.$.$.$.$.$.$.$.$.$.$.$.$.$.$.$.$.$.$.$.$.$.$.$.$.$.$.$.$.$.$.$.$.$.$.$.$.$.$.$.$.$.$.$.#.#.#.#.#.#.#.#.#.#.#.#.#.C M #.",
"M B $.$.$.$.$.$.$.$.$.$.$.$.$.$.$.$.$.$.$.$.$.$.$.$.$.$.$.$.$.$.$.$.$.$.$.$.$.$.$.$.$.$.$.$.$.$.#.#.#.#.#.#.#.#.#.#.#.#.#.C M #.",
"M N $.$.$.$.$.$.$.$.$.$.$.$.$.$.$.$.$.$.$.$.$.$.$.$.$.$.$.$.$.$.$.$.$.$.$.$.$.$.$.$.$.$.$.$.$.$.#.#.#.#.#.#.#.#.#.#.#.#.#.C M #.",
"M N $.$.$.$.$.$.$.$.$.$.$.$.$.$.$.$.$.$.$.$.$.$.$.$.$.$.$.$.$.$.$.$.$.$.$.$.$.$.$.$.$.$.$.$.$.$.#.#.#.#.#.#.#.#.#.#.#.#.#.C M @.",
"M B $.$.$.$.$.$.$.$.$.$.$.$.$.$.$.$.$.$.$.$.$.$.$.$.$.$.$.$.$.$.$.$.$.$.$.$.$.$.$.$.$.$.$.$.$.$.#.#.#.#.#.#.#.#.#.#.#.#.#.C M @.",
"M B $.$.$.$.$.$.$.$.$.$.$.$.$.$.$.$.$.$.$.$.$.$.$.$.$.$.$.$.$.$.$.$.$.$.$.$.$.$.$.$.$.$.$.$.$.$.#.#.#.#.#.#.#.#.#.#.#.#.#.B M @.",
"M B $.$.$.$.$.$.$.$.$.$.$.$.$.$.$.$.$.$.$.$.$.$.$.$.$.$.$.$.$.$.$.$.$.$.$.$.$.$.#.#.#.$.#.#.#.#.#.#.#.#.#.#.#.#.#.#.#.#.#.C M #.",
"M B B B V V V V V V V V B B C C C N V V V C B N V V V V B N C C C C B N B C C C C B B C C C C B C C C C C M B B B B C M B C M #.",
"M M M M M M M M M M M M M M M M M M M M M M M M M M M M M M M M M M M M M M M M M M M M M M M M M M M M M M M M M M M M M M M @.",
"@.@.$.$.@.@.@.@.@.@.@.@.@.@.$.$.@.@.@.@.$.$.@.@.@.@.$.$.@.@.@.@.$.$.@.@.@.@.$.$.@.@.@.@.@.#.@.@.@.@.@.#.@.#.#.#.#.#.@.@.@.@.@.#."
};
