/* XPM */
static char *_216f6b690c94613acf383319371e521g2BnQunIbXQqFIgy[] = {
/* columns rows colors chars-per-pixel */
"64 64 62 1 ",
"  c black",
". c #030402",
"X c #060803",
"o c #070904",
"O c #0E1408",
"+ c #101709",
"@ c #131B0B",
"# c #151E0C",
"$ c #151F0D",
"% c #19230E",
"& c #1B2710",
"* c #1E2A11",
"= c #202E13",
"- c #212F13",
"; c #243315",
": c #263616",
"> c #273817",
", c #2A3C19",
"< c #2E411B",
"1 c #2F431C",
"2 c #31461D",
"3 c #374E20",
"4 c #395121",
"5 c #3F5A25",
"6 c #405B25",
"7 c #466329",
"8 c #476429",
"9 c #47652A",
"0 c #4F712E",
"q c #537630",
"w c #537731",
"e c #567B32",
"r c #587D33",
"t c #587E34",
"y c #5B8135",
"u c #5C8336",
"i c #5E8637",
"p c #618A38",
"a c #628B39",
"s c #638D3A",
"d c #648E3A",
"f c #65903B",
"g c #66913B",
"h c #68943D",
"j c #6A973E",
"k c #6C9A3F",
"l c #178A77",
"z c #12887A",
"x c #148979",
"c c #158A78",
"v c #168A78",
"b c #6D9B40",
"n c #709F41",
"m c #71A242",
"M c #73A443",
"N c #76A845",
"B c #79AC46",
"V c #7BAF48",
"C c #7BB14A",
"Z c #7CB048",
"A c #7DB149",
"S c #7DB249",
/* pixels */
"zzzzzzzzzzzzzzzzzzzzzzzzzzzzzzzzzzzzzzzzzzzzzzzzzzzzzzzzzzzzzzzS",
"zxxxxzxxxxxxxxxxxxxxxxxxxxxxxxxxxxxxxxxxxzxxxxxxxxxxxxxxxxxxxxzZ",
"zlSSSSSSSSSSSSSSSSSSSSSSSSSSSSSSSSSSSSSSSSSSSSSSSSSSSSSSSSSSSvzZ",
"zxSSSSSSSSSSSSSSSSSSSSSSSSSSSSSSSSSSSSSSSSSSSSSSSSSSSSSSSSSSSzzC",
"zxSSSSSSSSSSSSSSSSSSSSSSSSSSSSSSSSSSSSSSSSSSSSSSSSSSSSSSSSSSSlzS",
"zlSSSSSSSSSSSSSSSSSSSSSSSSSSSSSSSSSSSSSSSSSSSSSSSSSSSSSSSSSSSxzS",
"zxSSSSSSSSSSSSSSSSSSSSSSSSSSSSSSSSSSSSSSSSSSSSSSSSSSSSSSSSSSSxzC",
"zxSSSSSSSSSSSSSSSSSSSSSSSSSSSSSSSSSSSSSSSSSSSSSSSSSSSSSSSSSSSzzC",
"zxSSSSSSSSSSSSSSSSSSSSSSSSSSSSSSSSSSSSSSSSSSSSSSSSSSSSSSSSSSSxxS",
"zlSSSSSSSSSSSSSSSSSSSSSSSSSSSSSSSSSSSSSSSSSSSSSSSSSSSSSSSSSSSlzS",
"zlSSSSSSSSSSSSSSSSSSSSSSSSSSSSSSSSSSSSSSSSSSSSSSSSSSSSSSSSSSSxzC",
"zxSSSSSSSSSSSSSSSSSSSSSSSSSSSSSSSSSSSSSSSSSSSSSSSSSSSSSSSSSSSzzC",
"zcSSSSSSSSSSSSSSSSS9OOOO=tSSSSSSSSSSSSh2OOOO4mSSSSSSSSSSSSSSSlzS",
"zcSSSSSSSSSSSSSSSSB6    $qSSSSSSSSSSSSg:    1bSSSSSSSSSSSSSSSlzS",
"zcSSSSSSSSSSSSSSSSS6    $qSSSSSSSSSSSSg:    <bSSSSSSSSSSSSSSSvzC",
"zcSSSSSSSSSSSSSSSSV6    X*1211112<<2<2:O    <bSSSSSSSSSSSSSSSzzC",
"zcSSSSSSSSSSSSSSSSZ5                        <bSSSSSSSSSSSSSSSvzS",
"zcSSSSSSSSSSSSSSSSS6                        <bSSSSSSSSSSSSSSSvzS",
"zcSSSSSSSSSSSSSSSSZ6                        <bSSSSSSSSSSSSSSSvzC",
"zcSSSSSSSSSSSSSSSSZ5    .@;*======*;*-%o    <bSSSSSSSSSSSSSSSzzC",
"zcSSSSSSSSSSSSSSSSS6    $qZSSSSSSSSSSSd>    <bSSSSSSSSSSSSSSSvzS",
"zcSSSSSSSSSSSSSSSSS6    $qSSSSSSSSSSSSg:    <bSSSSSSSSSSSSSSSvzS",
"zcSSSSSSSSSSSSSSSSB6    .@%%%%%%%%%%%%@.    <bSSSSSSSSSSSSSSSvzC",
"zcSSSSSSSSSSSSSSSSS6                        1bSSSSSSSSSSSSSSSzzC",
"zcSSSSSSSSSSSSSSSSZ5                        1bSSSSSSSSSSSSSSSvzS",
"zcSSSSSSSSSSSSSSSSZ5                        <bSSSSSSSSSSSSSSSvzS",
"zcSSSSSSSSSSSSSSSSZ0;**-==;**;*;============7mSSSSSSSSSSSSSSSvzC",
"zcSSSSSSSSSSSSSSSSSSSSSSSSSSSSSSSSSSSSSSSSSSSSSSSSSSSSSSSSSSSzzC",
"zcSSSSSSSSSSSSBgeeeeeeeeeeeeeeeeeeeeeeeeeeeeeeeeaMSSSSSSSSSSSvzS",
"zcSSSSSSSSSSSSm2                                =iSSSSSSSSSSSvzS",
"zcSSSSSSSSSSSSm2                                =iSSSSSSSSSSSvzC",
"zcSSSSSSSSSSSSk2                                =iSSSSSSSSSSSzzC",
"zxSSSSSSSSSSSSm2                                =pSSSSSSSSSSSxxS",
"zzSSSSSSSSSSSSVdtttetttttttt9*    %5ttttttttttttdNSSSSSSSSSSSxzV",
"zlSSSSSSSSSSSSSSSSSSSSSSSSSSk<    :aSSSSSSSSSSSSSSSSSSSSSSSSSxzZ",
"zxSSSSSSSSSSSSSSSSSZVVVVVVVSj<    :pVVZZVVVVSSSSSSSSSSSSSSSSSzzC",
"zzSSSSSSSSSSSSSSSSi*                        ,dSSSSSSSSSSSSSSSxxS",
"zlSSSSSSSSSSSSSSSSu&                        -sSSSSSSSSSSSSSSSvzS",
"zlSSSSSSSSSSSSSSSSu*                        -sSSSSSSSSSSSSSSSxzC",
"zxSSSSSSSSSSSSSSSSy*                        ;pSSSSSSSSSSSSSSSxzC",
"zxSSSSSSSSSSSSSSSSj7433333333333333333,+    =pSSSSSSSSSSSSSSSvxS",
"zlSSSSSSSSSSSSSSSSSSSSSSSSSSSSSSSSSSSSb2    =pSSSSSSSSSSSSSSSxzS",
"zlSSSSSSSSSSSSSSSSSSSSSSSSSSSSSSSSSSSSn2    =pSSSSSSSSSSSSSSSxzZ",
"zxSSSSSSSSSSSSSSSSSSSSSSSSSSSSSSSSSSSSn2    ;sSSSSSSSSSSSSSSSzzC",
"zcSSSSSSSSSSSSSSSSSSSSSSSSSSSSSSSSSSSSb2    ;pSSSSSSSSSSSSSSSvxS",
"zxSSSSSSSSSSSSSSSSSSSSSSSSSSSSSSSSSSSSn2    =pSSSSSSSSSSSSSSSvzS",
"zcSSSSSSSSSSSSSSSSSSSSSSSSSSSSSSSSSSSSb2    ;pSSSSSSSSSSSSSSSxzV",
"zcSSSSSSSSSSSSSSSSSSSSSSSSSSSSSSSSSSSSn2    -pVSSSSSSSSSSSSSSxzC",
"zcSSSSSSSSSSSSSSSSSSSSSSSSSSSSSSSSSSSSNt7788emSSSSSSSSSSSSSSSvzC",
"zcSSSSSSSSSSSSSSSSSSSSSSSSSSSSSSSSSSSSSSSSSSSSSSSSSSSSSSSSSSSvzC",
"zcSSSSSSSSSSSSSSSSSSSSSSSSSSSSSSSSSSSSSSSSSSSSSSSSSSSSSSSSSSSvzC",
"zcSSSSSSSSSSSSSSSSSSSSSSSSSSSSSSSSSSSSSSSSSSSSSSSSSSSSSSSSSSSvzC",
"zcSSSSSSSSSSSSSSSSSSSSSSSSSSSSSSSSSSSSSSSSSSSSSSSSSSSSSSSSSSSvzC",
"zcSSSSSSSSSSSSSSSSSSSSSSSSSSSSSSSSSSSSSSSSSSSSSSSSSSSSSSSSSSSvzC",
"zcSSSSSSSSSSSSSSSSSSSSSSSSSSSSSSSSSSSSSSSSSSSSSSSSSSSSSSSSSSSvzC",
"zcSSSSSSSSSSSSSSSSSSSSSSSSSSSSSSSSSSSSSSSSSSSSSSSSSSSSSSSSSSSvzC",
"zlSSSSSSSSSSSSSSSSSSSSSSSSSSSSSSSSSSSSSSSSSSSSSSSSSSSSSSSSSSSvzC",
"zlSSSSSSSSSSSSSSSSSSSSSSSSSSSSSSSSSSSSSSSSSSSSSSSSSSSSSSSSSSSvzC",
"zzSSSSSSSSSSSSSSSSSSSSSSSSSSSSASSSSSSSSSSSSSSSSSSSSSSSSSSSSSSvzC",
"zvSSSSSSSSSSSSSSSSSSSSSSSSSSSSAASSSSSSSSSSSSSSSSSSSSSSSSSSSSSvzC",
"zvSSSSSSSSSSSSSSSSSSSSSSSSSSSSSASSSSSSSSSSSSSSSSSSSSSSSSSSSSSvzS",
"zvcvvvvlvvvvcclcvxvlllvxllllvvvllvvvvlllvxvvvvvxllllvxvvvvvvvvzC",
"zzzzzzzzzzzzzzxzzzzzxzzzzzxxzzzzxzzzzzxzzzzzxxzzzzxzzzzzxxzzzzzC",
"SZSSCCCCZSCCZZZSCCCCZSCCCCCSCCCCCVCCCCVSCCCVSSCCCCVSCCCCCSCCCCCS"
};
