/* XPM */
static char *_867c940358a4f119283387e365933baK7q868tte7Yq0oQE[] = {
/* columns rows colors chars-per-pixel */
"64 64 62 1 ",
"  c black",
". c #010001",
"X c #09050A",
"o c #0A060B",
"O c #110A12",
"+ c #150C17",
"@ c #1B101D",
"# c #1C101E",
"$ c #221424",
"% c #27172A",
"& c #2B192E",
"* c #331D36",
"= c #361F3A",
"- c #3D2442",
"; c #422647",
": c #46294B",
"> c #4B2B50",
", c #4C2C51",
"< c #4F2E54",
"1 c #533059",
"2 c #56325C",
"3 c #57335E",
"4 c #5A3460",
"5 c #5C3562",
"6 c #5D3664",
"7 c #603767",
"8 c #623868",
"9 c #643A6B",
"0 c #6A3D71",
"q c #6B3E72",
"w c #6C3E74",
"e c #714179",
"r c #73427B",
"t c #692498",
"y c #6C2699",
"u c #6C279A",
"i c #6D279A",
"p c #7B4783",
"a c #7B4784",
"s c #7E4987",
"d c #814A8A",
"f c #844C8E",
"g c #8B5195",
"h c #90539A",
"j c #91549B",
"k c #9657A1",
"l c #9858A2",
"z c #9B59A5",
"x c #9E5BA9",
"c c #A15DAD",
"v c #A45FB0",
"b c #A660B2",
"n c #A962B5",
"m c #AC63B8",
"M c #AD64B9",
"N c #AE65BA",
"B c #B468C1",
"V c #B669C3",
"C c #B76AC4",
"Z c #B86AC5",
"A c #B96BC5",
"S c #B96BC6",
/* pixels */
"tttttttttttttttttttttttttttttttttttttttttttttttttttttttttttttttA",
"ttuuututuuututuuututuuututuuututuuututuuututuuututuuututuuututtA",
"tuAASSSSASSSSSAASSSSASSSSSAASSSSASSSSSAASSSSASSSSSAASSSSASSSSutA",
"tuAASSSSASSSSSSSSSSSASSSSSSSSSSSASSSSSSSSSSSASSSSSSSSSSSASSSSutC",
"tuAAASSSSSSSSSSSSSSSSSSSSSSSSSSSSSSSSSSSSSSSSSSSSSSSSSSSSSSSSutA",
"tuAASSSSSSSSSSSSSSSSSSSSSSSSSSSSSSSSSSSSSSSSSSSSSSSSSSSSSSSSSutC",
"tuAASSSSSSSSSSSSSSSSSSSSSSSSSSSSSSSSSSSSSSSSSSSSSSSSSSSSSSSSSutS",
"tuAASSSSSSSSSSSSSSSSSSSSSSSSSSSSSSSSSSSSSSSSSSSSSSSSSSSSSSSSSutC",
"tuSSSSSSSSSSSSSSSSSSSSSSSSSSSSSSSSSSSSSSSSSSSSSSSSSSSSSSSSSSSutS",
"tuSSSSSSSSSSSSSSSSSSSSSSSSSSSSSSSSSSSSSSSSSSSSSSSSSSSSSSSSSSSutC",
"tuSSSSSSSSSSSSSSSSSSSSSSSSSSSSSSSSSSSSSSAASSASAASSSSSSSSSSSSSutS",
"tuSSSSSSSSSSSSSSSSSSSSSSSSSSSSSSSSSSSSSSM+++++9ASSSSSSSSSSSSSutC",
"tyAASSSSSSSSSSSSSSSSSAAASASSAAASSSSSSSSSb.....<ASSSSSSSSSSSSSutA",
"tyAASSSSSSSSSSSSSSSSSAAACCACCAASSSSSSSSSv.....<ASSSSSSSSSSSSSutC",
"tySSSSSSSSSSSSSSSSSSSSAx.....6SSSSSSSSSSv.....<ASSSSSSSSSSSSSutS",
"tySSSSSSSSSSSSSSSSSSSSAh.....6SSSSSSSSSSv.....<ASSSSSSSSSSSSSutC",
"tySSSSSSSSSSSSSSSSSSSSSh.....6ASSSSSSSSSv.....<SSSSSSSSSSSSSSutS",
"tySSSSSSSSSSSSSSSSSSSSSh.....6AASSSSSSSSv.....<ASSSSSSSSSSSSSutC",
"tySSSSSSSSSSSSSSSSSSSSSh.....6AASSSSSSSSv.....<ASSSSSSSSSSSSSutS",
"tySSSSSSSSSSSSSSSSSSSSSg.....3AASSSSSSSSv.....<ASSSSSSSSSSSSSutC",
"tySSSSSSSSSSSSSSSSSSSSSa.....:SSSSSSAAASv.....<ASSSSSSSSSSSSSutS",
"tySSSSSSSSSSSSSSSSSSSSA0.....=SSSSSSAASSv.....<ASSSSSSSSSSSSSutZ",
"tySSSSSSSSSSSSSSSSSSSSA2.....@SSAMdddddd0.....<SSSSSSSSSSSSSSutZ",
"tySSSSSSSSSSSSSSSSSSSAA;......SASk............<ASSSSSSSSSSSSSutZ",
"tySSSSSSSSSSSSSSSSSSAAC%......nASk............<ASSSSSSSSSSSSSutZ",
"tySSSSSSSSSSSSSSSSSSAAb.......eASk............<ASSSSSSSSSSSSSutZ",
"tySSSSSSSSSSSSSSSSSSAA0.......*ASk............<ASSSSSSSSSSSSSutZ",
"tySSSSSSSSSSSSSSSSSSAA&........nSMaapaap0.....<ASSSSSSSSSSSSSutZ",
"tySSSSSSSSSSSSSSSSSSSv.........eSSSSAAAAv.....<SSSSSSSSSSSSSSutZ",
"tySSSSSSSSSSSSSSSSAZA5.........@BSSSAAAAv.....<SSSSSSSSSSSSSSutZ",
"tySSSSSSSSSSSSSSSSSZk...........<ASSSSSSb.....<SSSSSSSSSSSSSSutZ",
"tySSSSSSSSSSSSSSSSSB#.....<......fSSSSSSc.....<SSSSSSSSSSSSSSutZ",
"tuSSSSSSSSSSSSSSAAA1.....ob<.....OnAAAASv.....<AASSSSSSSSSSSSutA",
"tuSSSSSSSSSSSSSSAAs......wAz......@kAASSv.....<AASSSSSSSSSSSSutC",
"tuSSSSSSSSSSSSSSSw......%BAA3.......8CSSv.....<ASSSSSSSSSSSSSutA",
"tuSSSSSSSSSSSSAc-.......jAAAB#.......&nSv.....<ASSSSSSSSSSSSSutC",
"ttAASSSSSSSSSSl........>AAASSkX......obAv.....<SSSSSSSSSSSSSSutS",
"tuAASSSSSSSSSSC=......@mAASSSSh......dAAv.....<ASSSSSSSSSSSSSutC",
"tuASSSSSSSSSSSAm+....$nSSSSSSSShO...1SAAv.....<ASSSSSSSSSSSSSutS",
"tuSSSSSSSSSSSSSSj...=MSSSSSSSSSSM>.%CSSSv.....<ASSSSSSSSSSSSSutC",
"tuSSSSSSSSSSSSSSAeoaASSSSSSSSSSSAAjvSSSSb.....<ASSSSSSSSSSSSSutS",
"tuSASSSSSSSSSSSSAACSASSSSSSSSSSSAAAASSSSb.....<ASSSSSSSSSSSSSutC",
"tuAASSSSSSSSSSSSASSSSSSSSSSSSSSSSSAASSSSv.....<SSSSSSSSSSSSSSutA",
"tuAASSSSSSSSSSSSASSSSSSSSSSSSSSSSSSASSSSv.....<ASSSSSSSSSSSSSutC",
"tySSSSSSSSSSSSSSSSSSSSSSSSSSSSSSSSSSSSSSv.....<ASSSSSSSSSSSSSutS",
"tuSSSSSSSSSSSSSSSSSSSSSSSSSSSSSSSSSSSSSSv.....<ASSSSSSSSSSSSSutC",
"tySSSSSSSSSSSSSSSSSSSSSSSSSSSSSSSSSSSSSSv.....<ASSSSSSSSSSSSSutS",
"tySSSSSSSSSSSSSSSSSSSSSSSSSSSSSSSSSSSSSSv.....<ASSSSSSSSSSSSSutC",
"tyASSSSSSSSSSSSSSSSSSSSSSSSSSSSSSSSSSSSSN77777fSSSSSSSSSSSSSSutS",
"tySSSSSSSSSSSSSSSSSSSSSSSSSSSSSSSSSSSSSSSSSSSSSSSSSSSSSSSSSSSutC",
"tySSSSSSSSSSSSSSSSSSSSSSSSSSSSSSSSSSSSSSSSSSSSSSSSSSSSSSSSSSSutS",
"tySSSSSSSSSSSSSSSSSSSSSSSSSSSSSSSSSSSSSSSSSSSSSSSSSSSSSSSSSSSutC",
"tySSSSSSSSSSSSSSSSSSSSSSSSSSSSSSSSSSSSSSSSSSSSSSSSSSSSSSSSSSSutS",
"tySSSSSSSSSSSSSSSSSSSSSSSSSSSSSSSSSSSSSSSSSSSSSSSSSSSSSSSSSSSutZ",
"tySSSSSSSSSSSSSSSSSSSSSSSSSSSSSSSSSSSSSSSSSSSSSSSSSSSSSSSSSSSutZ",
"tySSSSSSSSSSSSSSSSSSSSSSSSSSSSSSSSSSSSSSSSSSSSSSSSSSSSSSSSSSSutZ",
"yySSSSSSSSSSSSSSSSSSSSSSSSSSSSSSSSSSSSSSSSSSSSSSSSSSSSSSSSSSSutZ",
"tySSSSSSSSSSSSSSSSSSSSSSSSSSSSSSSSSSSSSSSSSSSSSSSSSSSSSSSSSSSutZ",
"tySSSSSSSSSSSSSSSSSSSSSSSSSSSSSSSSSSSSSSSSSSSSSSSSSSSSSSSSSSSutZ",
"tySSSSSSSSSSSSSSSSSSSSSSSSSSSSSSSSSSSSSSSSSSSSSSSSSSSSSSSSSSSutZ",
"tyZSSSSSSSSSSSSSSSSSSSSSSSSSSSSSSSSSSSSSSSSSSSSSSSSSSSSSSSSSSutZ",
"tyiuuyuuuuuuuuuuiiiiiiiiiiiiiiiiiiiiiiiiiiiiiiiiuuuuuuuuuuuuuutZ",
"ttytttttytttttttttttttttttttttttttttttttttttttttttyytttttttttttZ",
"ZZZZZZZZZZZZZZZZZZZZZZZZZZZZZZZZZZZZZZZZZZZZZZZZZZZZZZZZZZZZZZZS"
};
