/* XPM */
static char *_8a8ecb5431b4644c22b3f750a30f5e8ywrij3cgd7FCPrI4[] = {
/* columns rows colors chars-per-pixel */
"64 64 63 1 ",
"  c black",
". c #010100",
"X c #0D0A04",
"o c #0E0B04",
"O c #161206",
"+ c #171207",
"@ c #271F0B",
"# c #27200B",
"$ c #362B10",
"% c #423513",
"& c #4E3E17",
"* c #524218",
"= c #574619",
"- c #58471A",
"; c #5E4B1B",
": c #67521E",
"> c #6A551F",
", c #725C21",
"< c #735C21",
"1 c #745D22",
"2 c #786023",
"3 c #816826",
"4 c #866C27",
"5 c #8E7229",
"6 c #8F7329",
"7 c #94772B",
"8 c #95782B",
"9 c #987B2C",
"0 c #9D7E2E",
"q c #FD6F22",
"w c #FD7223",
"e c #FD7324",
"r c #FD7424",
"t c #A2832F",
"y c #A3832F",
"u c #A88731",
"i c #AC8B32",
"p c #B08E33",
"a c #B49134",
"s c #B59235",
"d c #BC9737",
"f c #BD9837",
"g c #BE9837",
"h c #C29C38",
"j c #C8A13A",
"k c #C9A23A",
"l c #CAA23B",
"z c #CCA43B",
"x c #D1A83D",
"c c #D7AD3E",
"v c #DAAF3F",
"b c #DBB040",
"n c #E1B541",
"m c #E5B842",
"M c #EABC44",
"N c #ECBE44",
"B c #F1C246",
"V c #F2C346",
"C c #F3C347",
"Z c #F5C547",
"A c #F7C748",
"S c #FECC4A",
"D c #FFCD4A",
/* pixels */
"qqqqqqqqqqqqqqqqwwqqqqqqqqqqqqqqqqqqqqqqqqqqqqqqqqqqqqqqqqqqqqqD",
"qwwwwwwwwwwwwwwwrrwwwwwwwwwwwwwwwwwwwwwwwwwwwwwwwwwwwwwwwwwwwwqS",
"qwDDDDDDDDDDDDDDDDDDDDDDDDDDDDDDDDDDDDDDDDDDDDDDDDDDDDDDDDDDDeqS",
"qwDDDDDDDDDDDDDDDDDDDDDDDDDDDDDDDDDDDDDDDDDDDDDDDDDDDDDDDDDDDwqS",
"qwDDDDDDDDDDDDDDDDDDDDDDDDDDDDDDDDDDDDDDDDDDDDDDDDDDDDDDDDDDDeqD",
"qwDDDDDDDDDDDDDDDDDDDDDDDDDDDDDDDDDDDDDDDDDDDDDDDDDDDDDDDDDDDeqS",
"qwDDDDDDDDDDDDDDDDDDDDDDDDDDDDDDDDDDDDDDDDDDDDDDDDDDDDDDDDDDDeqS",
"qwDDDDDDDDDDDDDDDDDDDDDDDDDDDDDDDDDDDDDDDDDDDDDDDDDDDDDDDDDDDeqS",
"qwDDDDDDDDDDDDDDDDDDDDDDDDDDDDDDDDDDDDDDDDDDDDDDDDDDDDDDDDDDDeqS",
"qwDDDDDDDDDDDDDDDDDDDDDDDDDDDDDDDDDDDDDDDDDDDDDDDDDDDDDDDDDDDeqS",
"qwDDDDDDDDDDDDDDDDDDDDDDDDDDDDDDDDDDDDDDDDDDDDDDDDDDDDDDDDDDDeqS",
"qwDDDDDDDDDDDDDDDDDDDDDDDDDDDDDDDDDDDDZ@@@@#1DDDDDDDDDDDDDDDDeqS",
"qwDDDDDDDDDDDDDDZnnnnnVDDDDDDDDDDDDDDDC     =DDDDDDDDDDDDDDDDeqS",
"qwDDDDDDDDDDDDDDh     8DDDDDDDDDDDDDDDZ     =DDDDDDDDDDDDDDDDeqS",
"qwDDDDDDDDDDDDDDf     8DDDDDDDDDDDDDDDV     =DDDDDDDDDDDDDDDDeqS",
"qwDDDDDDDDDDDDDDf     8DDDDDDDDDDDDDDDC     =DDDDDDDDDDDDDDDDeqS",
"qwDDDDDDDDDDDDDDf     8DDDDDDDDDDDDDDDA     =DDDDDDDDDDDDDDDDeqD",
"qwDDDDDDDDDDDDDDf     8DDDDDDDDDDDDDDDV     =DDDDDDDDDDDDDDDDeqD",
"qwDDDDDDDDDDDDDDf     7DDDDDDDDDDDDDDDV     &MMMMADDDDDDDDDDDeqS",
"qwDDDDDDDDDDDDDDf     7DDDDDDDDDDDDDDDZ          1DDDDDDDDDDDeqS",
"qwDDDDDDDDDDDDDDf     8DDDDDDDDDDDDDDDV          2DDDDDDDDDDDeqS",
"qwDDDDDDDDDDDDDDf     8DDDDDDDDDDDDDDDA          2DDDDDDDDDDDeqS",
"qwDDDDDDDDDDDDDDf     8DDDDDDDDDDDDDDDZ          2DDDDDDDDDDDeqS",
"qwDDDDDDDDDDDDDDf     7DDDDDDDDDDDDDDDZ     O--=-tDDDDDDDDDDDeqS",
"qwDDDDDDDDDDDDDDf     8DDDDDDDDNlu4:9DV     =DSDDDDDDDDDDDDDDeqS",
"qwDDDDDDDDDDDDDDf     ;t611>-$o     *DA     =DDDDDDDDDDDDDDDDeqS",
"qwDDDDDDDDDDDDDDf                   #DV     =DDDDDDDDDDDDDDDDeqS",
"qwDDDDDDDDDDDDDDf                    AA     =DDDDDDDDDDDDDDDDeqS",
"qwDDDDDDDDDDDDDDf                    mZ     =DDDDDDDDDDDDDDDDeqS",
"qwDDDDDDDDDDDDDDf             O%>6pxZDZ     =DDDDDDDDDDDDDDDDeqS",
"qwDDDDDDDDDDDDDDV433469tishkcADDDDDDDDV     =DDDDDDDDDDDDDDDDeqS",
"qwDDDDDDDDDDDDDDDDDDDDDDDDDDDDDDDDDDDDA     =DDDDDDDDDDDDDDDDeqS",
"qwDDDDDDDDDDDDDDDDDDDDDDDDDDDDDDDDDDDDDlaaaazDDDDDDDDDDDDDDDDeqD",
"qeDDDDDDDDDDDDDDDDDDh00000000000000000000000dDDDDDDDDDDDDDDDDeqD",
"qwDDDDDDDDDDDDDDDDDD%                       =DDDDDDDDDDDDDDDDeqS",
"qwDDDDDDDDDDDDDDDDDD%                       =DDDDDDDDDDDDDDDDeqS",
"qwDDDDDDDDDDDDDDDDDS%                       =DDDDDDDDDDDDDDDDeqS",
"qwDDDDDDDDDDDDDDDDDS%                       =DDDDDDDDDDDDDDDDeqS",
"qwDDDDDDDDDDDDDDDDDS%    Obbbbbbbbbbbbv     =DDDDDDDDDDDDDDDDeqS",
"qwDDDDDDDDDDDDDDDDDS%    ODDDDDDDDDDDDDX    =DDDDDDDDDDDDDDDDeqS",
"qwDDDDDDDDDDDDDDDDDS%    ODDDDDDDDDDDDSX    =DDDDDDDDDDDDDDDDeqS",
"qwDDDDDDDDDDDDDDDDDS%    ODDDDDDDDDDDDSX    =DDDDDDDDDDDDDDDDeqS",
"qwDDDDDDDDDDDDDDDDDS%    ODDDDDDDDDDDDDX    =DDDDDDDDDDDDDDDDeqS",
"qwDDDDDDDDDDDDDDDDDS%     1111,,,,11,,1     =DDDDDDDDDDDDDDDDeqS",
"qwDDDDDDDDDDDDDDDDDS%                       =DDDDDDDDDDDDDDDDeqS",
"qwDDDDDDDDDDDDDDDDDS%                       =DDDDDDDDDDDDDDDDeqS",
"qwDDDDDDDDDDDDDDDDDS%                       =DDDDDDDDDDDDDDDDeqS",
"qwDDDDDDDDDDDDDDDDDD*                       =DDDDDDDDDDDDDDDDeqS",
"qwDDDDDDDDDDDDDDDDDDDDDDDDDDDDDDDDDDDDDDDDDDDDDDDDDDDDDDDDDDDeqS",
"qwDDDDDDDDDDDDDDDDDDDDDDDDDDDDDDDDDDDDDDDDDDDDDDDDDDDDDDDDDDDeqS",
"qwDDDDDDDDDDDDDDDDDDDDDDDDDDDDDDDDDDDDDDDDDDDDDDDDDDDDDDDDDDDeqS",
"qwDDDDDDDDDDDDDDDDDDDDDDDDDDDDDDDDDDDDDDDDDDDDDDDDDDDDDDDDDDDeqS",
"qwDDDDDDDDDDDDDDDDDDDDDDDDDDDDDDDDDDDDDDDDDDDDDDDDDDDDDDDDDDDeqS",
"qwDDDDDDDDDDDDDDDDDDDDDDDDDDDDDDDDDDDDDDDDDDDDDDDDDDDDDDDDDDDeqS",
"qwDDDDDDDDDDDDDDDDDDDDDDDDDDDDDDDDDDDDDDDDDDDDDDDDDDDDDDDDDDDeqS",
"qwDDDDDDDDDDDDDDDDDDDDDDDDDDDDDDDDDDDDDDDDDDDDDDDDDDDDDDDDDDDeqS",
"qwDDDDDDDDDDDDDDDDDDDDDDDDDDDDDDDDDDDDDDDDDDDDDDDDDDDDDDDDDDDeqS",
"qwDDDDDDDDDDDDDDDDDDDDDDDDDDDDDDDDDDDDDDDDDDDDDDDDDDDDDDDDDDDeqS",
"qwDDDDDDDDDDDDDDDDDDDDDDDDDDDDDDDDDDDDDDDDDDDDDDDDDDDDDDDDDDDeqS",
"qwDDDDDDDDDDDDDDDDDDDDDDDDDDDDDDDDDDDDDDDDDDDDDDDDDDDDDDDDDDDeqS",
"qwDDDDDDDDDDDDDDDDDDDDDDDDDDDDDDDDDDDDDDDDDDDDDDDDDDDDDDDDDDDeqD",
"qwrreerrrreeeerererrrrrerrrrrerrrreerrrreerrrreerrrreerrrreeeeqS",
"qqqqqqqqqqqqqqqqqqqqqqqqqqqqqqqqqqqqqqqqqqqqqqqqqqqqqqqqqqqqqqqS",
"SSDDSSSSDDSSSSDDSSSSSDSSSSSDSSSSSDSSSSDDSSSSDDSSSSDDSSSSDDSSSSSD"
};
